<mxfile host="app.diagrams.net" agent="Mozilla/5.0 (Windows NT 10.0; Win64; x64) AppleWebKit/537.36 (KHTML, like Gecko) Chrome/126.0.0.0 Safari/537.36" version="24.7.5">
  <diagram name="Page-1" id="QUtDIccSRgERD6ln696T">
    <mxGraphModel dx="1173" dy="624" grid="1" gridSize="10" guides="1" tooltips="1" connect="1" arrows="1" fold="1" page="1" pageScale="1" pageWidth="850" pageHeight="1100" math="0" shadow="0">
      <root>
        <mxCell id="0" />
        <mxCell id="1" parent="0" />
        <mxCell id="07gmpoXII292DJnsWcgK-1" value="FLDAS Climate variables" style="shape=parallelogram;perimeter=parallelogramPerimeter;whiteSpace=wrap;html=1;fixedSize=1;rounded=1;glass=0;strokeWidth=1;shadow=0;fillColor=#ffcc99;strokeColor=#36393d;fontStyle=1" parent="1" vertex="1">
          <mxGeometry x="116" y="180" width="124" height="54" as="geometry" />
        </mxCell>
        <mxCell id="07gmpoXII292DJnsWcgK-2" value="" style="shape=partialRectangle;whiteSpace=wrap;html=1;bottom=0;right=0;fillColor=none;rotation=-90;fontStyle=1" parent="1" vertex="1">
          <mxGeometry x="158" y="219" width="30" height="60" as="geometry" />
        </mxCell>
        <mxCell id="07gmpoXII292DJnsWcgK-3" style="edgeStyle=orthogonalEdgeStyle;rounded=0;orthogonalLoop=1;jettySize=auto;html=1;entryX=0;entryY=0.5;entryDx=0;entryDy=0;fontStyle=1" parent="1" source="07gmpoXII292DJnsWcgK-4" edge="1">
          <mxGeometry relative="1" as="geometry">
            <mxPoint x="422" y="334" as="targetPoint" />
            <Array as="points">
              <mxPoint x="320" y="264" />
              <mxPoint x="320" y="334" />
            </Array>
          </mxGeometry>
        </mxCell>
        <mxCell id="07gmpoXII292DJnsWcgK-4" value="Precipitation" style="shape=parallelogram;perimeter=parallelogramPerimeter;whiteSpace=wrap;html=1;fixedSize=1;rounded=1;glass=0;strokeWidth=1;shadow=0;fillColor=#ffcc99;strokeColor=#36393d;fontStyle=1" parent="1" vertex="1">
          <mxGeometry x="174" y="244" width="120" height="40" as="geometry" />
        </mxCell>
        <mxCell id="07gmpoXII292DJnsWcgK-6" value="Temperature" style="shape=parallelogram;perimeter=parallelogramPerimeter;whiteSpace=wrap;html=1;fixedSize=1;rounded=1;glass=0;strokeWidth=1;shadow=0;fillColor=#ffcc99;strokeColor=#36393d;fontStyle=1" parent="1" vertex="1">
          <mxGeometry x="174" y="294" width="120" height="40" as="geometry" />
        </mxCell>
        <mxCell id="07gmpoXII292DJnsWcgK-7" value="" style="shape=partialRectangle;whiteSpace=wrap;html=1;bottom=0;right=0;fillColor=none;rotation=-90;fontStyle=1" parent="1" vertex="1">
          <mxGeometry x="144" y="310" width="58" height="60" as="geometry" />
        </mxCell>
        <mxCell id="07gmpoXII292DJnsWcgK-8" style="edgeStyle=orthogonalEdgeStyle;rounded=0;orthogonalLoop=1;jettySize=auto;html=1;fontStyle=1" parent="1" source="07gmpoXII292DJnsWcgK-9" edge="1">
          <mxGeometry relative="1" as="geometry">
            <Array as="points">
              <mxPoint x="320" y="368" />
              <mxPoint x="320" y="334" />
            </Array>
            <mxPoint x="422" y="334" as="targetPoint" />
          </mxGeometry>
        </mxCell>
        <mxCell id="07gmpoXII292DJnsWcgK-9" value="Runoff" style="shape=parallelogram;perimeter=parallelogramPerimeter;whiteSpace=wrap;html=1;fixedSize=1;rounded=1;glass=0;strokeWidth=1;shadow=0;fillColor=#ffcc99;strokeColor=#36393d;fontStyle=1" parent="1" vertex="1">
          <mxGeometry x="174" y="348" width="120" height="40" as="geometry" />
        </mxCell>
        <mxCell id="07gmpoXII292DJnsWcgK-10" value="" style="shape=partialRectangle;whiteSpace=wrap;html=1;bottom=0;right=0;fillColor=none;rotation=-90;fontStyle=1" parent="1" vertex="1">
          <mxGeometry x="144" y="359" width="58" height="60" as="geometry" />
        </mxCell>
        <mxCell id="07gmpoXII292DJnsWcgK-11" style="edgeStyle=orthogonalEdgeStyle;rounded=0;orthogonalLoop=1;jettySize=auto;html=1;fontStyle=1;entryX=-0.002;entryY=0.547;entryDx=0;entryDy=0;entryPerimeter=0;" parent="1" source="07gmpoXII292DJnsWcgK-12" target="MAml1XfjMAZWZLBs70uh-9" edge="1">
          <mxGeometry relative="1" as="geometry">
            <mxPoint x="464" y="334" as="targetPoint" />
            <Array as="points">
              <mxPoint x="320" y="418" />
              <mxPoint x="320" y="334" />
            </Array>
          </mxGeometry>
        </mxCell>
        <mxCell id="07gmpoXII292DJnsWcgK-12" value="&lt;font style=&quot;font-size: 11px;&quot;&gt;Evapotranspiration&lt;/font&gt;" style="shape=parallelogram;perimeter=parallelogramPerimeter;whiteSpace=wrap;html=1;fixedSize=1;rounded=1;glass=0;strokeWidth=1;shadow=0;fillColor=#ffcc99;strokeColor=#36393d;fontStyle=1" parent="1" vertex="1">
          <mxGeometry x="170" y="398" width="130" height="42" as="geometry" />
        </mxCell>
        <mxCell id="07gmpoXII292DJnsWcgK-13" value="" style="shape=partialRectangle;whiteSpace=wrap;html=1;bottom=0;right=0;fillColor=none;rotation=-90;fontStyle=1" parent="1" vertex="1">
          <mxGeometry x="140" y="415" width="66" height="60" as="geometry" />
        </mxCell>
        <mxCell id="07gmpoXII292DJnsWcgK-14" style="edgeStyle=orthogonalEdgeStyle;rounded=0;orthogonalLoop=1;jettySize=auto;html=1;fontStyle=1;entryX=-0.004;entryY=0.548;entryDx=0;entryDy=0;entryPerimeter=0;" parent="1" source="07gmpoXII292DJnsWcgK-15" target="MAml1XfjMAZWZLBs70uh-9" edge="1">
          <mxGeometry relative="1" as="geometry">
            <mxPoint x="400" y="350" as="targetPoint" />
            <Array as="points">
              <mxPoint x="320" y="473" />
              <mxPoint x="320" y="334" />
            </Array>
          </mxGeometry>
        </mxCell>
        <mxCell id="07gmpoXII292DJnsWcgK-15" value="Soil Moisture" style="shape=parallelogram;perimeter=parallelogramPerimeter;whiteSpace=wrap;html=1;fixedSize=1;rounded=1;glass=0;strokeWidth=1;shadow=0;fillColor=#ffcc99;strokeColor=#36393d;fontStyle=1" parent="1" vertex="1">
          <mxGeometry x="174" y="453" width="120" height="40" as="geometry" />
        </mxCell>
        <mxCell id="07gmpoXII292DJnsWcgK-18" value="" style="edgeStyle=orthogonalEdgeStyle;rounded=0;orthogonalLoop=1;jettySize=auto;html=1;entryX=0.51;entryY=0.008;entryDx=0;entryDy=0;entryPerimeter=0;fontStyle=1" parent="1" target="MAml1XfjMAZWZLBs70uh-9" edge="1">
          <mxGeometry relative="1" as="geometry">
            <Array as="points">
              <mxPoint x="437" y="264" />
              <mxPoint x="437" y="264" />
            </Array>
            <mxPoint x="437" y="244" as="sourcePoint" />
            <mxPoint x="437" y="304" as="targetPoint" />
          </mxGeometry>
        </mxCell>
        <mxCell id="07gmpoXII292DJnsWcgK-20" value="" style="edgeStyle=orthogonalEdgeStyle;rounded=0;orthogonalLoop=1;jettySize=auto;html=1;entryX=0.5;entryY=0;entryDx=0;entryDy=0;fontStyle=1" parent="1" target="07gmpoXII292DJnsWcgK-25" edge="1">
          <mxGeometry relative="1" as="geometry">
            <Array as="points">
              <mxPoint x="437" y="390" />
              <mxPoint x="519" y="390" />
            </Array>
            <mxPoint x="437" y="364" as="sourcePoint" />
          </mxGeometry>
        </mxCell>
        <mxCell id="07gmpoXII292DJnsWcgK-22" style="edgeStyle=orthogonalEdgeStyle;rounded=0;orthogonalLoop=1;jettySize=auto;html=1;exitX=1;exitY=0.5;exitDx=0;exitDy=0;fontStyle=1;entryX=-0.003;entryY=0.545;entryDx=0;entryDy=0;entryPerimeter=0;" parent="1" source="07gmpoXII292DJnsWcgK-6" target="MAml1XfjMAZWZLBs70uh-9" edge="1">
          <mxGeometry relative="1" as="geometry">
            <mxPoint x="410" y="334" as="targetPoint" />
            <mxPoint x="294" y="314" as="sourcePoint" />
            <Array as="points">
              <mxPoint x="320" y="314" />
              <mxPoint x="320" y="334" />
            </Array>
          </mxGeometry>
        </mxCell>
        <mxCell id="07gmpoXII292DJnsWcgK-24" value="Long term&amp;nbsp;&lt;div&gt;Annual &amp;amp; Monthly average Maps&lt;/div&gt;" style="shape=parallelogram;perimeter=parallelogramPerimeter;whiteSpace=wrap;html=1;fixedSize=1;rounded=1;glass=0;strokeWidth=1;shadow=0;fillColor=#cdeb8b;strokeColor=#36393d;fontStyle=1" parent="1" vertex="1">
          <mxGeometry x="445" y="510" width="146" height="80" as="geometry" />
        </mxCell>
        <mxCell id="5t3jCof5IoFhCqDW-onn-9" style="edgeStyle=orthogonalEdgeStyle;rounded=0;orthogonalLoop=1;jettySize=auto;html=1;" edge="1" parent="1" source="07gmpoXII292DJnsWcgK-25">
          <mxGeometry relative="1" as="geometry">
            <mxPoint x="519" y="510" as="targetPoint" />
            <Array as="points">
              <mxPoint x="519" y="510" />
            </Array>
          </mxGeometry>
        </mxCell>
        <mxCell id="07gmpoXII292DJnsWcgK-25" value="Long term Annual &amp;amp; Monthly average + Zonal Statistics" style="whiteSpace=wrap;html=1;rounded=1;glass=0;strokeWidth=1;shadow=0;fillColor=#cce5ff;strokeColor=#36393d;fontStyle=1" parent="1" vertex="1">
          <mxGeometry x="459" y="424" width="120" height="60" as="geometry" />
        </mxCell>
        <mxCell id="07gmpoXII292DJnsWcgK-26" value="" style="shape=partialRectangle;whiteSpace=wrap;html=1;bottom=0;right=0;fillColor=none;rotation=-90;fontStyle=1" parent="1" vertex="1">
          <mxGeometry x="144" y="474" width="58" height="60" as="geometry" />
        </mxCell>
        <mxCell id="07gmpoXII292DJnsWcgK-27" value="Snow Depth" style="shape=parallelogram;perimeter=parallelogramPerimeter;whiteSpace=wrap;html=1;fixedSize=1;rounded=1;glass=0;strokeWidth=1;shadow=0;fillColor=#ffcc99;strokeColor=#36393d;fontStyle=1" parent="1" vertex="1">
          <mxGeometry x="174" y="508" width="120" height="40" as="geometry" />
        </mxCell>
        <mxCell id="07gmpoXII292DJnsWcgK-28" style="edgeStyle=orthogonalEdgeStyle;rounded=0;orthogonalLoop=1;jettySize=auto;html=1;entryX=0.998;entryY=0.536;entryDx=0;entryDy=0;entryPerimeter=0;fontStyle=1;exitX=0.425;exitY=0.979;exitDx=0;exitDy=0;exitPerimeter=0;" parent="1" target="MAml1XfjMAZWZLBs70uh-9" edge="1" source="MAml1XfjMAZWZLBs70uh-13">
          <mxGeometry relative="1" as="geometry">
            <Array as="points">
              <mxPoint x="520" y="162" />
              <mxPoint x="520" y="333" />
            </Array>
            <mxPoint x="575" y="164" as="sourcePoint" />
            <mxPoint x="487" y="334" as="targetPoint" />
          </mxGeometry>
        </mxCell>
        <mxCell id="07gmpoXII292DJnsWcgK-31" value="Snow Depth&amp;nbsp;&lt;div&gt;Maps&lt;/div&gt;" style="shape=parallelogram;perimeter=parallelogramPerimeter;whiteSpace=wrap;html=1;fixedSize=1;rounded=1;glass=0;strokeWidth=1;shadow=0;fillColor=#cdeb8b;strokeColor=#36393d;fontStyle=1" parent="1" vertex="1">
          <mxGeometry x="312" y="510" width="140" height="80" as="geometry" />
        </mxCell>
        <mxCell id="MAml1XfjMAZWZLBs70uh-5" value="&lt;div&gt;MERIT DEM&lt;/div&gt;" style="shape=parallelogram;perimeter=parallelogramPerimeter;whiteSpace=wrap;html=1;fixedSize=1;rounded=1;glass=0;strokeWidth=1;shadow=0;fillColor=#ffcc99;strokeColor=#36393d;fontStyle=1" parent="1" vertex="1">
          <mxGeometry x="302" y="103.02" width="120" height="60" as="geometry" />
        </mxCell>
        <mxCell id="MAml1XfjMAZWZLBs70uh-6" style="edgeStyle=orthogonalEdgeStyle;rounded=0;orthogonalLoop=1;jettySize=auto;html=1;entryX=0.592;entryY=-0.067;entryDx=0;entryDy=0;entryPerimeter=0;fontStyle=1" parent="1" source="MAml1XfjMAZWZLBs70uh-5" edge="1">
          <mxGeometry relative="1" as="geometry">
            <mxPoint x="437.03999999999996" y="194.00000000000003" as="targetPoint" />
            <Array as="points">
              <mxPoint x="438" y="133" />
              <mxPoint x="438" y="194" />
            </Array>
          </mxGeometry>
        </mxCell>
        <mxCell id="MAml1XfjMAZWZLBs70uh-8" value="Watershed Delineation for 9 NWH basins" style="rounded=1;whiteSpace=wrap;html=1;fontSize=12;glass=0;strokeWidth=1;shadow=0;fillColor=#cce5ff;strokeColor=#36393d;fontStyle=1" parent="1" vertex="1">
          <mxGeometry x="377" y="194" width="118" height="66" as="geometry" />
        </mxCell>
        <mxCell id="MAml1XfjMAZWZLBs70uh-9" value="&lt;font style=&quot;font-size: 11px;&quot;&gt;Clipped&amp;nbsp;&lt;/font&gt;&lt;div style=&quot;font-size: 11px;&quot;&gt;according to&amp;nbsp;&lt;/div&gt;&lt;div style=&quot;font-size: 11px;&quot;&gt;NWH basins&amp;nbsp;&lt;/div&gt;&lt;div style=&quot;font-size: 11px;&quot;&gt;boundary&lt;/div&gt;" style="rounded=1;whiteSpace=wrap;html=1;fontSize=12;glass=0;strokeWidth=1;shadow=0;fillColor=#cce5ff;strokeColor=#36393d;fontStyle=1" parent="1" vertex="1">
          <mxGeometry x="377" y="298" width="118" height="66" as="geometry" />
        </mxCell>
        <mxCell id="MAml1XfjMAZWZLBs70uh-10" value="" style="edgeStyle=orthogonalEdgeStyle;rounded=0;orthogonalLoop=1;jettySize=auto;html=1;entryX=0.5;entryY=0;entryDx=0;entryDy=0;exitX=0.5;exitY=1;exitDx=0;exitDy=0;fontStyle=1" parent="1" target="07gmpoXII292DJnsWcgK-32" edge="1">
          <mxGeometry relative="1" as="geometry">
            <mxPoint x="437" y="364" as="sourcePoint" />
            <mxPoint x="391" y="405" as="targetPoint" />
            <Array as="points">
              <mxPoint x="437" y="390" />
            </Array>
          </mxGeometry>
        </mxCell>
        <mxCell id="MAml1XfjMAZWZLBs70uh-11" style="edgeStyle=orthogonalEdgeStyle;rounded=0;orthogonalLoop=1;jettySize=auto;html=1;exitX=0.5;exitY=1;exitDx=0;exitDy=0;entryX=0.5;entryY=0;entryDx=0;entryDy=0;fontStyle=1" parent="1" source="07gmpoXII292DJnsWcgK-32" target="07gmpoXII292DJnsWcgK-31" edge="1">
          <mxGeometry relative="1" as="geometry" />
        </mxCell>
        <mxCell id="07gmpoXII292DJnsWcgK-32" value="&amp;nbsp;Overlay Randolf Glacier Inventory boundary" style="whiteSpace=wrap;html=1;rounded=1;glass=0;strokeWidth=1;shadow=0;fillColor=#cce5ff;strokeColor=#36393d;fontStyle=1" parent="1" vertex="1">
          <mxGeometry x="330" y="424" width="120" height="60" as="geometry" />
        </mxCell>
        <mxCell id="MAml1XfjMAZWZLBs70uh-13" value="&lt;div&gt;Decadal&amp;nbsp;&lt;/div&gt;&lt;div&gt;LULC for India (2005)&lt;/div&gt;" style="shape=parallelogram;perimeter=parallelogramPerimeter;whiteSpace=wrap;html=1;fixedSize=1;rounded=1;glass=0;strokeWidth=1;shadow=0;fillColor=#ffcc99;strokeColor=#36393d;fontStyle=1" parent="1" vertex="1">
          <mxGeometry x="448" y="103.02" width="120" height="60" as="geometry" />
        </mxCell>
        <mxCell id="5M5wrSji2qeCkD0t40Yh-3" value="" style="shape=partialRectangle;whiteSpace=wrap;html=1;bottom=0;right=0;fillColor=none;rotation=-90;fontStyle=1" parent="1" vertex="1">
          <mxGeometry x="140" y="264" width="49" height="43" as="geometry" />
        </mxCell>
        <mxCell id="5M5wrSji2qeCkD0t40Yh-5" value="" style="shape=partialRectangle;whiteSpace=wrap;html=1;bottom=0;right=0;fillColor=none;rotation=-180;fontStyle=1" parent="1" vertex="1">
          <mxGeometry x="280" y="474" width="40" height="59" as="geometry" />
        </mxCell>
        <mxCell id="5M5wrSji2qeCkD0t40Yh-6" style="edgeStyle=orthogonalEdgeStyle;rounded=0;orthogonalLoop=1;jettySize=auto;html=1;exitX=0.5;exitY=0;exitDx=0;exitDy=0;entryX=0.485;entryY=0;entryDx=0;entryDy=0;entryPerimeter=0;" parent="1" source="5M5wrSji2qeCkD0t40Yh-5" target="5M5wrSji2qeCkD0t40Yh-5" edge="1">
          <mxGeometry relative="1" as="geometry" />
        </mxCell>
        <mxCell id="5t3jCof5IoFhCqDW-onn-3" value="" style="edgeStyle=orthogonalEdgeStyle;rounded=0;orthogonalLoop=1;jettySize=auto;html=1;" edge="1" parent="1" source="5t3jCof5IoFhCqDW-onn-1" target="5t3jCof5IoFhCqDW-onn-2">
          <mxGeometry relative="1" as="geometry" />
        </mxCell>
        <mxCell id="5t3jCof5IoFhCqDW-onn-1" value="&lt;div&gt;IMS&amp;nbsp;&lt;/div&gt;&lt;div&gt;Snow Cover&amp;nbsp;&lt;/div&gt;&lt;div&gt;data (2014-2024)&amp;nbsp;&lt;/div&gt;" style="shape=parallelogram;perimeter=parallelogramPerimeter;whiteSpace=wrap;html=1;fixedSize=1;rounded=1;glass=0;strokeWidth=1;shadow=0;fillColor=#ffcc99;strokeColor=#36393d;fontStyle=1" vertex="1" parent="1">
          <mxGeometry x="583" y="103.02" width="127" height="66.98" as="geometry" />
        </mxCell>
        <mxCell id="5t3jCof5IoFhCqDW-onn-5" value="" style="edgeStyle=orthogonalEdgeStyle;rounded=0;orthogonalLoop=1;jettySize=auto;html=1;" edge="1" parent="1" source="5t3jCof5IoFhCqDW-onn-2" target="5t3jCof5IoFhCqDW-onn-4">
          <mxGeometry relative="1" as="geometry">
            <Array as="points">
              <mxPoint x="647" y="320" />
              <mxPoint x="647" y="320" />
            </Array>
          </mxGeometry>
        </mxCell>
        <mxCell id="5t3jCof5IoFhCqDW-onn-2" value="Clipped to NWH boundary" style="whiteSpace=wrap;html=1;fillColor=#cce5ff;strokeColor=#36393d;rounded=1;glass=0;strokeWidth=1;shadow=0;fontStyle=1;" vertex="1" parent="1">
          <mxGeometry x="587" y="223.99999999999997" width="120" height="60" as="geometry" />
        </mxCell>
        <mxCell id="5t3jCof5IoFhCqDW-onn-8" value="" style="edgeStyle=orthogonalEdgeStyle;rounded=0;orthogonalLoop=1;jettySize=auto;html=1;" edge="1" parent="1" source="5t3jCof5IoFhCqDW-onn-4" target="5t3jCof5IoFhCqDW-onn-7">
          <mxGeometry relative="1" as="geometry">
            <Array as="points">
              <mxPoint x="647" y="480" />
              <mxPoint x="647" y="480" />
            </Array>
          </mxGeometry>
        </mxCell>
        <mxCell id="5t3jCof5IoFhCqDW-onn-4" value="Min, Max, Average &amp;amp; Relative Snow Cover statistics calculation&amp;nbsp;" style="whiteSpace=wrap;html=1;fillColor=#cce5ff;strokeColor=#36393d;rounded=1;glass=0;strokeWidth=1;shadow=0;fontStyle=1;" vertex="1" parent="1">
          <mxGeometry x="583" y="338" width="137" height="82" as="geometry" />
        </mxCell>
        <mxCell id="5t3jCof5IoFhCqDW-onn-7" value="Min, Max,&amp;nbsp;&lt;div&gt;Average&amp;nbsp;&lt;div&gt;&amp;amp;&amp;nbsp;&lt;/div&gt;&lt;div&gt;Relative&amp;nbsp;&lt;span style=&quot;background-color: initial;&quot;&gt;Snow Cover&amp;nbsp;&lt;/span&gt;&lt;/div&gt;&lt;div&gt;graphs&lt;/div&gt;&lt;/div&gt;" style="shape=parallelogram;perimeter=parallelogramPerimeter;whiteSpace=wrap;html=1;fixedSize=1;fillColor=#cdeb8b;strokeColor=#36393d;rounded=1;glass=0;strokeWidth=1;shadow=0;fontStyle=1;" vertex="1" parent="1">
          <mxGeometry x="583" y="510" width="147" height="80" as="geometry" />
        </mxCell>
      </root>
    </mxGraphModel>
  </diagram>
</mxfile>
